<?xml version="1.0" standalone="no"?>
<!DOCTYPE svg PUBLIC "-//W3C//DTD SVG 20010904//EN"
 "http://www.w3.org/TR/2001/REC-SVG-20010904/DTD/svg10.dtd">
<svg version="1.0" xmlns="http://www.w3.org/2000/svg"
 width="960.000000pt" height="960.000000pt" viewBox="0 0 960.000000 960.000000"
 preserveAspectRatio="xMidYMid meet">

<g transform="translate(0.000000,960.000000) scale(0.100000,-0.100000)"
fill="#000000" stroke="none">
<path d="M4490 6331 c-6 -12 -10 -107 -10 -240 l0 -221 -57 26 c-32 15 -88 40
-124 56 l-66 30 -259 -117 c-142 -64 -299 -135 -349 -157 -99 -45 -125 -63
-125 -87 0 -9 41 -57 90 -106 l90 -90 0 -457 0 -458 -1446 0 -1445 0 3 -42 3
-43 1478 0 c1303 0 1479 2 1487 15 6 9 10 219 10 519 l0 503 -71 73 c-39 40
-66 75 -62 78 24 15 586 267 595 267 5 0 80 -32 166 -71 147 -67 300 -136 401
-180 l44 -20 -77 -78 -76 -79 0 -494 c0 -411 2 -497 14 -514 14 -19 46 -19
1983 -19 l1968 0 3 43 3 42 -1340 0 -1341 0 0 901 c0 601 -3 907 -10 920 -10
19 -29 19 -740 19 -711 0 -730 0 -740 -19z m1395 -941 l0 -875 -550 0 -550 0
-3 453 -2 453 90 92 c128 129 132 121 -105 228 l-190 86 -3 209 c-1 115 0 214
3 221 3 11 133 13 657 11 l653 -3 0 -875z"/>
<path d="M5265 5879 c-192 -26 -361 -50 -375 -52 -14 -2 156 -5 378 -6 l402
-1 0 55 c0 54 -1 55 -27 54 -16 -1 -185 -23 -378 -50z"/>
<path d="M5525 5544 c-55 -8 -226 -32 -380 -53 l-280 -39 403 -1 402 -1 0 55
c0 64 12 61 -145 39z"/>
<path d="M5565 5178 c-33 -5 -202 -29 -375 -53 l-315 -43 398 -1 397 -1 0 55
c0 63 5 61 -105 43z"/>
<path d="M4202 5577 c-6 -7 -12 -37 -14 -67 -3 -60 2 -56 -81 -59 -31 -1 -42
-19 -33 -56 5 -21 12 -25 45 -25 65 0 71 -6 71 -65 0 -58 16 -81 50 -70 27 8
42 39 34 69 -10 42 10 65 64 68 45 3 47 4 50 36 4 36 -2 40 -66 44 l-44 3 -2
52 c-2 29 -8 59 -16 67 -15 19 -44 21 -58 3z"/>
<path d="M4896 4029 c-121 -20 -235 -108 -293 -227 -25 -51 -28 -68 -28 -162
0 -94 3 -111 28 -162 99 -203 331 -288 530 -194 29 13 66 36 82 49 l30 26 -33
33 c-27 28 -35 31 -50 20 -86 -62 -130 -76 -222 -70 -77 6 -129 30 -189 88
-61 59 -85 118 -85 210 -1 124 54 213 166 270 50 24 73 30 127 30 87 -1 125
-15 207 -75 10 -7 22 -1 44 20 16 16 30 32 30 36 0 14 -85 69 -135 88 -62 23
-145 31 -209 20z"/>
<path d="M7650 4032 c-42 -13 -64 -65 -42 -98 34 -51 122 -25 122 36 0 38 -45
73 -80 62z"/>
<path d="M1075 4016 c-106 -35 -188 -106 -242 -207 -26 -50 -28 -62 -28 -169
0 -112 1 -117 34 -177 41 -77 113 -146 189 -181 50 -24 69 -27 162 -27 96 0
110 3 160 28 56 29 100 64 100 79 0 5 -12 20 -27 34 -26 24 -26 24 -47 5 -42
-40 -117 -65 -191 -65 -121 1 -227 70 -279 183 -30 65 -29 189 2 248 91 174
289 231 442 128 l50 -34 25 25 c14 14 25 28 25 33 0 16 -47 51 -105 77 -71 33
-203 43 -270 20z"/>
<path d="M2687 4012 c-22 -24 -21 -65 1 -85 40 -36 102 -9 102 45 0 51 -69 78
-103 40z"/>
<path d="M6070 3640 l0 -380 45 0 45 0 0 380 0 380 -45 0 -45 0 0 -380z"/>
<path d="M8570 3640 l0 -380 45 0 45 0 0 380 0 380 -45 0 -45 0 0 -380z"/>
<path d="M1600 3640 l0 -370 45 0 45 0 0 370 0 370 -45 0 -45 0 0 -370z"/>
<path d="M1882 3965 c-27 -56 -27 -55 1 -55 13 0 34 15 53 38 49 60 50 62 7
62 -36 0 -41 -3 -61 -45z"/>
<path d="M5572 3835 c-218 -61 -294 -322 -142 -488 64 -70 128 -99 221 -99
114 0 216 62 272 167 33 60 31 202 -2 265 -68 129 -213 193 -349 155z m161
-98 c65 -28 127 -121 127 -192 0 -107 -100 -205 -210 -205 -151 0 -253 167
-185 300 17 33 74 86 105 99 37 14 126 13 163 -2z"/>
<path d="M6505 3836 c-223 -55 -301 -338 -138 -498 65 -64 129 -91 214 -90
113 0 205 56 267 162 24 40 27 55 27 135 0 74 -4 97 -23 133 -67 126 -212 192
-347 158z m152 -97 c35 -13 90 -64 111 -104 20 -39 20 -141 0 -180 -83 -156
-305 -151 -379 10 -21 46 -23 84 -8 138 12 45 72 115 114 133 37 16 124 18
162 3z"/>
<path d="M7200 3838 c-19 -5 -52 -23 -72 -39 l-38 -30 0 31 c0 29 -2 30 -45
30 l-45 0 0 -285 0 -285 44 0 44 0 4 198 c3 188 4 199 26 230 34 48 75 65 139
60 46 -4 60 -10 91 -42 l37 -36 5 -203 5 -202 45 0 45 0 3 179 c3 222 -7 266
-76 335 -64 63 -131 82 -212 59z"/>
<path d="M8038 3837 c-86 -25 -161 -97 -193 -187 -20 -55 -19 -154 1 -213 20
-59 91 -139 149 -167 93 -45 232 -23 299 49 17 17 34 31 39 31 5 0 7 -19 5
-42 l-3 -43 48 -3 47 -3 0 286 0 286 -47 -3 c-47 -3 -48 -3 -49 -38 0 -19 -2
-39 -2 -45 -1 -5 -19 7 -39 27 -66 64 -166 89 -255 65z m175 -101 c75 -31 138
-150 121 -224 -31 -126 -134 -192 -262 -166 -43 9 -111 69 -133 118 -45 99 5
228 105 272 40 17 128 18 169 0z"/>
<path d="M2250 3829 c-13 -6 -39 -21 -57 -34 -39 -31 -43 -31 -43 -1 0 26 -18
35 -57 28 l-23 -4 0 -274 0 -274 40 0 40 0 1 178 c1 201 7 231 63 276 65 53
168 38 221 -32 18 -25 20 -45 23 -224 l3 -198 45 0 46 0 -4 203 c-3 198 -4
203 -30 247 -33 56 -63 85 -110 105 -42 17 -120 19 -158 4z"/>
<path d="M3074 3816 c-59 -28 -123 -89 -150 -143 -11 -23 -20 -67 -22 -115 -4
-66 -1 -84 21 -130 29 -62 84 -121 141 -150 55 -28 149 -34 217 -15 50 15 139
77 139 97 0 4 -14 17 -32 28 l-31 20 -36 -28 c-83 -66 -215 -55 -284 24 -90
105 -64 257 58 327 71 41 181 28 240 -28 20 -20 20 -20 53 1 17 12 31 27 30
35 -4 20 -92 78 -136 91 -65 18 -152 12 -208 -14z"/>
<path d="M3721 3824 c-57 -21 -117 -82 -149 -153 -20 -44 -26 -71 -26 -126 1
-86 24 -144 86 -211 56 -62 106 -84 188 -84 77 0 128 21 184 73 21 21 40 37
42 37 2 0 4 -20 4 -45 l0 -45 45 0 45 0 0 274 c0 297 2 287 -57 279 -31 -5
-33 -7 -33 -49 0 -24 -3 -44 -6 -44 -3 0 -15 12 -26 26 -11 14 -39 37 -62 51
-52 34 -167 42 -235 17z m169 -75 c185 -40 219 -304 50 -389 -86 -43 -175 -31
-240 32 -50 48 -70 92 -70 155 0 89 62 173 147 200 49 15 53 15 113 2z"/>
<path d="M2690 3548 l0 -278 40 0 40 0 -2 277 -3 278 -37 0 -38 0 0 -277z"/>
<path d="M7620 3545 l0 -285 45 0 45 0 0 285 0 285 -45 0 -45 0 0 -285z"/>
<path d="M1830 3545 l0 -275 45 0 45 0 0 275 0 275 -45 0 -45 0 0 -275z"/>
</g>
</svg>
